<svg width="24" height="24" viewBox="0 0 24 24" fill="none" xmlns="http://www.w3.org/2000/svg">
<path d="M18.9996 21V3.00001C18.999 2.81776 18.9488 2.63913 18.8542 2.48333C18.7597 2.32753 18.6245 2.20046 18.4631 2.11581C18.3017 2.03116 18.1203 1.99212 17.9383 2.0029C17.7564 2.01369 17.5809 2.07388 17.4306 2.17701L4.43062 11.177C3.89162 11.55 3.89162 12.448 4.43062 12.822L17.4306 21.822C17.5806 21.9262 17.7562 21.9873 17.9384 21.9986C18.1206 22.01 18.3025 21.9712 18.4642 21.8865C18.626 21.8018 18.7614 21.6743 18.8558 21.518C18.9502 21.3618 18.9999 21.1826 18.9996 21Z" fill="black"/>
</svg>
