<svg width="40" height="40" viewBox="0 0 40 40" fill="none" xmlns="http://www.w3.org/2000/svg">
<path d="M33.5999 20.0001C33.5999 27.5201 27.5199 33.6001 19.9999 33.6001C12.4799 33.6001 6.3999 27.5201 6.3999 20.0001C6.3999 12.4801 12.4799 6.4001 19.9999 6.4001C27.5199 6.4001 33.5999 12.4801 33.5999 20.0001ZM7.9999 20.0001C7.9999 26.6401 13.3599 32.0001 19.9999 32.0001C26.6399 32.0001 31.9999 26.6401 31.9999 20.0001C31.9999 13.3601 26.6399 8.0001 19.9999 8.0001C13.3599 8.0001 7.9999 13.3601 7.9999 20.0001Z" fill="#4169E1"/>
<path d="M21.36 13.3598L14.72 19.9998L21.36 26.6398L20.24 27.7598L12.48 19.9998L20.24 12.2398L21.36 13.3598Z" fill="#4169E1"/>
<path d="M13.6001 20.7998V19.1998H27.2001V20.7998H13.6001Z" fill="#4169E1"/>
</svg>
