<svg width="40" height="40" viewBox="0 0 40 40" fill="none" xmlns="http://www.w3.org/2000/svg">
<path d="M6.4001 19.9999C6.4001 12.4799 12.4801 6.3999 20.0001 6.3999C27.5201 6.3999 33.6001 12.4799 33.6001 19.9999C33.6001 27.5199 27.5201 33.5999 20.0001 33.5999C12.4801 33.5999 6.4001 27.5199 6.4001 19.9999ZM32.0001 19.9999C32.0001 13.3599 26.6401 7.9999 20.0001 7.9999C13.3601 7.9999 8.0001 13.3599 8.0001 19.9999C8.0001 26.6399 13.3601 31.9999 20.0001 31.9999C26.6401 31.9999 32.0001 26.6399 32.0001 19.9999Z" fill="#4169E1"/>
<path d="M18.64 26.64L25.28 20L18.64 13.36L19.76 12.24L27.52 20L19.76 27.76L18.64 26.64Z" fill="#4169E1"/>
<path d="M26.3999 19.2V20.7999L12.7999 20.7999V19.2L26.3999 19.2Z" fill="#4169E1"/>
</svg>
