<svg width="24" height="24" viewBox="0 0 24 24" fill="none" xmlns="http://www.w3.org/2000/svg">
<path d="M21.333 5.33333H16.4663L15.7597 3.51999C15.663 3.26941 15.4929 3.05387 15.2716 2.90161C15.0504 2.74934 14.7883 2.66745 14.5197 2.66666H9.47968C9.20995 2.66611 8.9464 2.74737 8.72382 2.89972C8.50125 3.05208 8.33011 3.26835 8.23301 3.51999L7.53301 5.33333H2.66634C2.31272 5.33333 1.97358 5.4738 1.72353 5.72385C1.47348 5.9739 1.33301 6.31304 1.33301 6.66666V20C1.33301 20.3536 1.47348 20.6928 1.72353 20.9428C1.97358 21.1929 2.31272 21.3333 2.66634 21.3333H21.333C21.6866 21.3333 22.0258 21.1929 22.2758 20.9428C22.5259 20.6928 22.6663 20.3536 22.6663 20V6.66666C22.6663 6.31304 22.5259 5.9739 22.2758 5.72385C22.0258 5.4738 21.6866 5.33333 21.333 5.33333ZM21.333 20H2.66634V6.66666H8.44634L9.47968 3.99999H14.5197L15.553 6.66666H21.333V20Z" fill="#4169E1"/>
<path d="M6 12.6667C6 13.8533 6.35189 15.0134 7.01118 16.0001C7.67047 16.9868 8.60754 17.7558 9.7039 18.2099C10.8003 18.6641 12.0067 18.7829 13.1705 18.5514C14.3344 18.3199 15.4035 17.7484 16.2426 16.9093C17.0818 16.0702 17.6532 15.0011 17.8847 13.8372C18.1162 12.6733 17.9974 11.4669 17.5433 10.3706C17.0892 9.2742 16.3201 8.33713 15.3334 7.67784C14.3467 7.01855 13.1867 6.66666 12 6.66666C10.4087 6.66666 8.88258 7.2988 7.75736 8.42402C6.63214 9.54923 6 11.0754 6 12.6667ZM16.9333 12.6667C16.9333 13.6424 16.644 14.5962 16.1019 15.4075C15.5598 16.2188 14.7894 16.8511 13.8879 17.2245C12.9865 17.5979 11.9945 17.6956 11.0376 17.5052C10.0806 17.3148 9.20155 16.845 8.51161 16.1551C7.82167 15.4651 7.35181 14.5861 7.16146 13.6291C6.97111 12.6721 7.0688 11.6802 7.44219 10.7788C7.81559 9.8773 8.4479 9.10682 9.25919 8.56474C10.0705 8.02266 11.0243 7.73332 12 7.73332C13.3079 7.73509 14.5616 8.25541 15.4864 9.18021C16.4112 10.105 16.9316 11.3588 16.9333 12.6667Z" fill="#4169E1"/>
<path d="M6.24674 8.55332C6.24674 8.41187 6.19055 8.27622 6.09053 8.1762C5.99052 8.07618 5.85486 8.01999 5.71341 8.01999H4.11341C3.97196 8.01999 3.83631 8.07618 3.73629 8.1762C3.63627 8.27622 3.58008 8.41187 3.58008 8.55332C3.58008 8.69477 3.63627 8.83043 3.73629 8.93045C3.83631 9.03047 3.97196 9.08666 4.11341 9.08666H5.71341C5.85486 9.08666 5.99052 9.03047 6.09053 8.93045C6.19055 8.83043 6.24674 8.69477 6.24674 8.55332Z" fill="#4169E1"/>
<path d="M8.22666 12.6667C8.23416 13.3698 8.44113 14.0563 8.82351 14.6464C9.2059 15.2365 9.74796 15.7059 10.3867 16L10.9533 15.0867C10.5716 14.9588 10.2237 14.7462 9.93589 14.4648C9.64803 14.1833 9.42764 13.8404 9.29123 13.4616C9.15482 13.0828 9.10594 12.6781 9.14825 12.2777C9.19057 11.8774 9.32298 11.4918 9.53556 11.1499C9.74813 10.8081 10.0354 10.5188 10.3757 10.3037C10.716 10.0887 11.1006 9.95345 11.5007 9.90824C11.9007 9.86303 12.3058 9.90897 12.6855 10.0426C13.0653 10.1763 13.4098 10.3942 13.6933 10.68L14.2667 9.76C13.7209 9.31781 13.0607 9.03979 12.363 8.95835C11.6653 8.87691 10.9588 8.99539 10.3259 9.29999C9.69293 9.60458 9.15956 10.0828 8.7879 10.6788C8.41625 11.2749 8.22161 11.9643 8.22666 12.6667Z" fill="#4169E1"/>
</svg>
