<svg width="16" height="16" viewBox="0 0 16 16" fill="none" xmlns="http://www.w3.org/2000/svg">
<path d="M5.00184 13.1919L4.00293 14.9942" stroke="black" stroke-opacity="0.3" stroke-linecap="round" stroke-linejoin="round"/>
<path d="M10.9971 13.1919L11.996 14.9942" stroke="black" stroke-opacity="0.3" stroke-linecap="round" stroke-linejoin="round"/>
<path d="M7.99957 13.9951C11.3103 13.9951 13.9943 11.3112 13.9943 8.00046C13.9943 4.68968 11.3103 2.00577 7.99957 2.00577C4.6888 2.00577 2.00488 4.68968 2.00488 8.00046C2.00488 11.3112 4.6888 13.9951 7.99957 13.9951Z" stroke="black" stroke-opacity="0.3" stroke-linecap="round" stroke-linejoin="round"/>
<path d="M2.20553 6.40243C1.7453 6.05748 1.39404 5.58741 1.19366 5.0483C0.993277 4.50919 0.952232 3.92381 1.07542 3.36201C1.19861 2.80022 1.48084 2.28572 1.88842 1.87993C2.296 1.47414 2.81173 1.19417 3.37406 1.07345C3.9364 0.952733 4.52159 0.99635 5.05981 1.1991C5.59804 1.40185 6.06656 1.75517 6.40948 2.21691" stroke="black" stroke-opacity="0.3" stroke-linecap="round" stroke-linejoin="round"/>
<path d="M8 2.00579L8.00002 1.00668" stroke="black" stroke-opacity="0.3" stroke-linecap="round" stroke-linejoin="round"/>
<path d="M8 5.00311V8.00044" stroke="black" stroke-opacity="0.3" stroke-linecap="round" stroke-linejoin="round"/>
<path d="M8 8.00046L10.1194 10.1199" stroke="black" stroke-opacity="0.3" stroke-linecap="round" stroke-linejoin="round"/>
<path d="M13.7938 6.40243C14.254 6.05748 14.6053 5.58741 14.8057 5.0483C15.0061 4.50919 15.0471 3.92381 14.9239 3.36201C14.8007 2.80022 14.5185 2.28572 14.1109 1.87993C13.7033 1.47414 13.1876 1.19417 12.6253 1.07345C12.0629 0.952733 11.4777 0.99635 10.9395 1.1991C10.4013 1.40185 9.93276 1.75517 9.58984 2.21691" stroke="black" stroke-opacity="0.3" stroke-linecap="round" stroke-linejoin="round"/>
</svg>
