<svg width="40" height="40" viewBox="0 0 40 40" fill="none" xmlns="http://www.w3.org/2000/svg">
<circle cx="20" cy="20" r="20" fill="#4169E1"/>
<path d="M12 30C11.45 30 10.9793 29.7826 10.588 29.3478C10.1967 28.913 10.0007 28.3896 10 27.7778V13.9167C10 13.6574 10.0377 13.4074 10.113 13.1667C10.1883 12.9259 10.3007 12.7037 10.45 12.5L11.7 10.8056C11.8833 10.5463 12.1123 10.347 12.387 10.2078C12.6617 10.0685 12.9493 9.99927 13.25 10H24.75C25.05 10 25.3377 10.0696 25.613 10.2089C25.8883 10.3482 26.1173 10.547 26.3 10.8056L27.55 12.5C27.7 12.7037 27.8127 12.9259 27.888 13.1667C27.9633 13.4074 28.0007 13.6574 28 13.9167V17.7778C27.45 17.7778 26.9293 17.8519 26.438 18C25.9467 18.1482 25.509 18.4444 25.125 18.8889L23 21.25V15.5556H15V24.4444L19 22.2222L21.075 23.3889L19 25.6667V30H12ZM21 30V26.5833L26.525 20.4722C26.675 20.3056 26.8417 20.1852 27.025 20.1111C27.2083 20.037 27.3917 20 27.575 20C27.775 20 27.9667 20.0419 28.15 20.1256C28.3333 20.2093 28.5 20.3341 28.65 20.5L29.575 21.5278C29.7083 21.6944 29.8127 21.8796 29.888 22.0833C29.9633 22.287 30.0007 22.4907 30 22.6944C29.9993 22.8982 29.966 23.1067 29.9 23.32C29.834 23.5333 29.7257 23.723 29.575 23.8889L24.075 30H21ZM27.575 23.7778L28.5 22.6944L27.575 21.6667L26.625 22.7222L27.575 23.7778ZM12.4 13.3333H25.6L24.75 12.2222H13.25L12.4 13.3333Z" fill="white"/>
</svg>
