<svg width="28" height="16" viewBox="0 0 28 16" fill="none" xmlns="http://www.w3.org/2000/svg">
<path d="M25.6667 0.416626H10.5C9.21667 0.416626 8.16667 1.46663 8.16667 2.74996V13.25C8.16667 13.8688 8.4125 14.4623 8.85008 14.8999C9.28767 15.3375 9.88116 15.5833 10.5 15.5833H25.6667C26.9617 15.5833 28 14.545 28 13.25V2.74996C28 2.13112 27.7542 1.53763 27.3166 1.10004C26.879 0.662459 26.2855 0.416626 25.6667 0.416626ZM25.6667 13.25H10.5V4.69829L18.0833 8.58329L25.6667 4.69829V13.25ZM18.0833 6.61163L10.5 2.74996H25.6667L18.0833 6.61163ZM5.83333 13.25C5.83333 13.4483 5.86833 13.635 5.89167 13.8333H1.16667C0.522667 13.8333 0 13.3083 0 12.6666C0 12.025 0.522667 11.5 1.16667 11.5H5.83333V13.25ZM3.5 2.16663H5.89167C5.86833 2.36496 5.83333 2.55163 5.83333 2.74996V4.49996H3.5C2.85833 4.49996 2.33333 3.97496 2.33333 3.33329C2.33333 2.69163 2.85833 2.16663 3.5 2.16663ZM1.16667 7.99996C1.16667 7.35829 1.69167 6.83329 2.33333 6.83329H5.83333V9.16663H2.33333C1.69167 9.16663 1.16667 8.64163 1.16667 7.99996Z" fill="#4169E1"/>
</svg>
